<svg width="88" height="124" viewBox="0 0 88 124" version="1.1" xmlns="http://www.w3.org/2000/svg" xmlns:xlink="http://www.w3.org/1999/xlink">
<title>Gold</title>
<desc>Created using Figma</desc>
<g id="Canvas" transform="translate(-670 347)">
<g id="Gold">
<g id="Group">
<g id="Rectangle">
<use xlink:href="#path0_fill" transform="translate(680 -347)" fill="#FD7744"/>
<mask id="mask0_outline_ins">
<use xlink:href="#path0_fill" fill="white" transform="translate(680 -347)"/>
</mask>
<g mask="url(#mask0_outline_ins)">
<use xlink:href="#path1_stroke_2x" transform="translate(680 -347)" fill="#C24D1B"/>
</g>
</g>
<g id="Star">
<use xlink:href="#path2_fill" transform="translate(672 -299)" fill="url(#paint2_linear)"/>
<mask id="mask1_outline_ins">
<use xlink:href="#path2_fill" fill="white" transform="translate(672 -299)"/>
</mask>
<g mask="url(#mask1_outline_ins)">
<use xlink:href="#path3_stroke_2x" transform="translate(672 -299)" fill="#C7A131"/>
</g>
</g>
<g id="Rectangle 2">
<use xlink:href="#path4_fill" transform="translate(670 -323)" fill="#F4F0E4"/>
<mask id="mask2_outline_ins">
<use xlink:href="#path4_fill" fill="white" transform="translate(670 -323)"/>
</mask>
<g mask="url(#mask2_outline_ins)">
<use xlink:href="#path5_stroke_2x" transform="translate(670 -323)" fill="#C7A131"/>
</g>
</g>
<g id="Ellipse">
<use xlink:href="#path6_fill" transform="translate(705 -312)" fill="#F4F0E4"/>
<mask id="mask3_outline_ins">
<use xlink:href="#path6_fill" fill="white" transform="translate(705 -312)"/>
</mask>
<g mask="url(#mask3_outline_ins)">
<use xlink:href="#path7_stroke_2x" transform="translate(705 -312)" fill="#C7A131"/>
</g>
</g>
</g>
<g id="Star 2">
<use xlink:href="#path8_fill" transform="translate(714 -277)" fill="url(#paint8_radial)"/>
</g>
</g>
</g>
<defs>
<linearGradient id="paint2_linear" x1="0" y1="0" x2="1" y2="0" gradientUnits="userSpaceOnUse" gradientTransform="matrix(40.5 73 -30.9651 17.1793 36.9826 4.41036)">
<stop offset="0.25434" stop-color="#FFBF00"/>
<stop offset="0.5" stop-color="#FFFFFF"/>
<stop offset="0.7" stop-color="#FFCF40"/>
</linearGradient>
<radialGradient id="paint8_radial" cx="0.5" cy="0.5" r="0.5" gradientUnits="userSpaceOnUse" gradientTransform="matrix(1.59204e-15 26 -26 1.59204e-15 26 -1.59204e-15)">
<stop offset="0" stop-color="#FFFFFF"/>
<stop offset="1" stop-color="#FFFFFF" stop-opacity="0"/>
</radialGradient>
<path id="path0_fill" d="M 0 2C 0 0.895431 0.895431 0 2 0L 66 0C 67.1046 0 68 0.895431 68 2L 68 27C 68 28.1046 67.1046 29 66 29L 2 29C 0.895431 29 0 28.1046 0 27L 0 2Z"/>
<path id="path1_stroke_2x" d="M 2 5L 66 5L 66 -5L 2 -5L 2 5ZM 63 2L 63 27L 73 27L 73 2L 63 2ZM 66 24L 2 24L 2 34L 66 34L 66 24ZM 5 27L 5 2L -5 2L -5 27L 5 27ZM 2 -5C -1.86599 -5 -5 -1.86599 -5 2L 5 2C 5 3.65685 3.65685 5 2 5L 2 -5ZM 66 5C 64.3431 5 63 3.65685 63 2L 73 2C 73 -1.86599 69.866 -5 66 -5L 66 5ZM 63 27C 63 25.3431 64.3431 24 66 24L 66 34C 69.866 34 73 30.866 73 27L 63 27ZM 2 24C 3.65685 24 5 25.3431 5 27L -5 27C -5 30.866 -1.86599 34 2 34L 2 24Z"/>
<path id="path2_fill" d="M 40.36 4.89092C 41.4936 2.79089 44.5064 2.79089 45.64 4.89092L 55.6327 23.4039C 56.0651 24.205 56.8378 24.7664 57.7333 24.93L 78.4281 28.7129C 80.7756 29.142 81.7067 32.0074 80.0597 33.7344L 65.5407 48.9589C 64.9125 49.6177 64.6173 50.526 64.7384 51.4282L 67.5357 72.2792C 67.8531 74.6444 65.4156 76.4153 63.2642 75.3826L 44.2982 66.2789C 43.4776 65.885 42.5224 65.885 41.7018 66.2789L 22.7358 75.3826C 20.5844 76.4153 18.1469 74.6444 18.4643 72.2792L 21.2616 51.4282C 21.3827 50.526 21.0875 49.6177 20.4593 48.9589L 5.94032 33.7344C 4.29335 32.0074 5.22438 29.142 7.57191 28.7129L 28.2667 24.93C 29.1622 24.7664 29.9349 24.205 30.3673 23.4039L 40.36 4.89092Z"/>
<path id="path3_stroke_2x" d="M 78.4281 28.7129L 77.529 33.6314L 78.4281 28.7129ZM 65.5407 48.9589L 61.9223 45.5082L 65.5407 48.9589ZM 67.5357 72.2792L 72.4913 71.6143L 67.5357 72.2792ZM 44.2982 66.2789L 46.4619 61.7713L 44.2982 66.2789ZM 22.7358 75.3826L 24.8995 79.8902L 22.7358 75.3826ZM 21.2616 51.4282L 16.306 50.7634L 21.2616 51.4282ZM 80.0597 33.7344L 83.6781 37.1851L 80.0597 33.7344ZM 64.7384 51.4282L 59.7828 52.0931L 64.7384 51.4282ZM 41.7018 66.2789L 39.5381 61.7713L 41.7018 66.2789ZM 20.4593 48.9589L 16.8409 52.4096L 20.4593 48.9589ZM 7.57191 28.7129L 6.67284 23.7944L 7.57191 28.7129ZM 30.3673 23.4039L 25.9673 21.029L 30.3673 23.4039ZM 41.24 7.26588L 51.2328 25.7789L 60.0327 21.029L 50.0399 2.51596L 41.24 7.26588ZM 56.8342 29.8485L 77.529 33.6314L 79.3272 23.7944L 58.6323 20.0115L 56.8342 29.8485ZM 76.4413 30.2837L 61.9223 45.5082L 69.1591 52.4096L 83.6781 37.1851L 76.4413 30.2837ZM 59.7828 52.0931L 62.5801 72.944L 72.4913 71.6143L 69.694 50.7634L 59.7828 52.0931ZM 65.4278 70.875L 46.4619 61.7713L 42.1345 70.7865L 61.1005 79.8902L 65.4278 70.875ZM 39.5381 61.7713L 20.5722 70.875L 24.8995 79.8902L 43.8655 70.7865L 39.5381 61.7713ZM 23.4199 72.944L 26.2172 52.0931L 16.306 50.7634L 13.5087 71.6143L 23.4199 72.944ZM 24.0777 45.5082L 9.5587 30.2837L 2.32193 37.1851L 16.8409 52.4096L 24.0777 45.5082ZM 8.47097 33.6314L 29.1658 29.8485L 27.3677 20.0115L 6.67284 23.7944L 8.47097 33.6314ZM 34.7672 25.7789L 44.76 7.26588L 35.9601 2.51596L 25.9673 21.029L 34.7672 25.7789ZM 50.0399 2.51596C 47.0172 -3.08413 38.9828 -3.08413 35.9601 2.51596L 44.76 7.26588C 44.0043 8.6659 41.9957 8.6659 41.24 7.26588L 50.0399 2.51596ZM 51.2328 25.7789C 52.3858 27.915 54.4463 29.4121 56.8342 29.8485L 58.6323 20.0115C 59.2293 20.1207 59.7444 20.4949 60.0327 21.029L 51.2328 25.7789ZM 77.529 33.6314C 75.964 33.3453 75.3433 31.435 76.4413 30.2837L 83.6781 37.1851C 88.07 32.5798 85.5872 24.9387 79.3272 23.7944L 77.529 33.6314ZM 61.9223 45.5082C 60.2471 47.2649 59.46 49.6872 59.7828 52.0931L 69.694 50.7634C 69.7747 51.3649 69.5779 51.9704 69.1591 52.4096L 61.9223 45.5082ZM 62.5801 72.944C 62.3686 71.3672 63.9936 70.1866 65.4278 70.875L 61.1005 79.8902C 66.8376 82.6441 73.3375 77.9216 72.4913 71.6143L 62.5801 72.944ZM 46.4619 61.7713C 44.2735 60.7209 41.7265 60.7209 39.5381 61.7713L 43.8655 70.7865C 43.3184 71.0491 42.6816 71.0491 42.1345 70.7865L 46.4619 61.7713ZM 20.5722 70.875C 22.0064 70.1866 23.6314 71.3672 23.4199 72.944L 13.5087 71.6143C 12.6625 77.9216 19.1624 82.6441 24.8995 79.8902L 20.5722 70.875ZM 26.2172 52.0931C 26.54 49.6872 25.7529 47.2649 24.0777 45.5082L 16.8409 52.4096C 16.4221 51.9704 16.2253 51.3649 16.306 50.7634L 26.2172 52.0931ZM 9.5587 30.2837C 10.6567 31.435 10.036 33.3453 8.47097 33.6314L 6.67284 23.7944C 0.412764 24.9387 -2.06998 32.5798 2.32193 37.1851L 9.5587 30.2837ZM 29.1658 29.8485C 31.5537 29.4121 33.6142 27.915 34.7672 25.7789L 25.9673 21.029C 26.2556 20.4949 26.7707 20.1207 27.3677 20.0115L 29.1658 29.8485Z"/>
<path id="path4_fill" d="M 0 9C 0 4.02944 4.02944 0 9 0L 79 0C 83.9706 0 88 4.02944 88 9L 88 9C 88 13.9706 83.9706 18 79 18L 9 18C 4.02944 18 0 13.9706 0 9L 0 9Z"/>
<path id="path5_stroke_2x" d="M 9 5L 79 5L 79 -5L 9 -5L 9 5ZM 79 13L 9 13L 9 23L 79 23L 79 13ZM 9 -5C 1.26801 -5 -5 1.26801 -5 9L 5 9C 5 6.79086 6.79086 5 9 5L 9 -5ZM 79 5C 81.2091 5 83 6.79086 83 9L 93 9C 93 1.26801 86.732 -5 79 -5L 79 5ZM 83 9C 83 11.2091 81.2091 13 79 13L 79 23C 86.732 23 93 16.732 93 9L 83 9ZM 9 13C 6.79086 13 5 11.2091 5 9L -5 9C -5 16.732 1.26801 23 9 23L 9 13Z"/>
<path id="path6_fill" d="M 19 9.5C 19 14.7467 14.7467 19 9.5 19C 4.25329 19 0 14.7467 0 9.5C 0 4.25329 4.25329 0 9.5 0C 14.7467 0 19 4.25329 19 9.5Z"/>
<path id="path7_stroke_2x" d="M 14 9.5C 14 11.9853 11.9853 14 9.5 14L 9.5 24C 17.5081 24 24 17.5081 24 9.5L 14 9.5ZM 9.5 14C 7.01472 14 5 11.9853 5 9.5L -5 9.5C -5 17.5081 1.49187 24 9.5 24L 9.5 14ZM 5 9.5C 5 7.01472 7.01472 5 9.5 5L 9.5 -5C 1.49187 -5 -5 1.49187 -5 9.5L 5 9.5ZM 9.5 5C 11.9853 5 14 7.01472 14 9.5L 24 9.5C 24 1.49187 17.5081 -5 9.5 -5L 9.5 5Z"/>
<path id="path8_fill" d="M 13 0L 14.1815 11.3737L 25.3637 8.98278L 14.9118 13.6212L 20.6412 23.5172L 13 15.0102L 5.35879 23.5172L 11.0882 13.6212L 0.636265 8.98278L 11.8185 11.3737L 13 0Z"/>
</defs>
</svg>
