<?xml version="1.0" encoding="utf-8"?>
<!-- Generator: Adobe Illustrator 16.0.0, SVG Export Plug-In . SVG Version: 6.00 Build 0)  -->
<!DOCTYPE svg PUBLIC "-//W3C//DTD SVG 1.1//EN" "http://www.w3.org/Graphics/SVG/1.1/DTD/svg11.dtd">
<svg version="1.1" id="Layer_1" xmlns="http://www.w3.org/2000/svg" xmlns:xlink="http://www.w3.org/1999/xlink" x="0px" y="0px"
	 width="200px" height="200px" viewBox="0 0 200 200" enable-background="new 0 0 200 200" xml:space="preserve">
<g>
	<path fill="#F39820" d="M62.861,140.044l71.956-37.729c0,0,3.069-2.114,1.493-5.135c-0.677-1.285-4.228-2.444-4.228-2.444
		l-17.519-6.744l30.842-38.778c0,0,1.276-2.359-1.096-3.873c-2.656-1.698-5.813-0.698-5.813-0.698L71.051,79.79
		c0,0-4.066,2.239-4.904,4.641c-0.966,2.749,3.768,3.729,3.768,3.729l18.95,7.912L60.55,130.784c0,0-1.886,3.473-1.617,6.333
		C59.305,141.15,62.861,140.044,62.861,140.044z"/>
	<path fill="#334670" d="M61.718,116.554c-3.209-6.264-5.328-13.579-5.328-20.957c0-24.517,19.948-44.465,44.464-44.465
		c1.468,0,2.915,0.08,4.346,0.221l13.147-6.85c-5.499-1.889-11.364-2.961-17.493-2.961c-29.808,0-54.055,24.25-54.055,54.055
		c0,9.967,3.24,20.349,8.393,28.958L61.718,116.554z"/>
	<path fill="#334670" d="M144.253,63.508l-6.202,7.797c4.579,6.992,7.271,15.33,7.271,24.292c0,14.989-8.708,30.538-21.167,37.817
		c-3.096,1.809-4.812,5.446-5.364,11.565H83.279c-0.135-1.634-0.383-3.232-0.78-4.724l-8.873,4.651
		c0.088,0.759,0.16,1.663,0.196,2.779l1.829,30.297c2.558,9.351,8.269,16.283,19.534,19.66l3.633,0.287
		c0.827,0.049,1.23,0.069,1.711,0.069c0.418,0,0.909-0.021,1.845-0.054l4.449-0.15l0.843-0.126
		c10.867-2.931,16.34-9.989,18.732-19.687l1.814-29.774c0.14-4.609,0.832-6.258,1.06-6.682c15.11-8.977,25.637-27.813,25.637-45.93
		C154.909,83.576,150.915,72.497,144.253,63.508z M106.146,188.177l-4.041,0.196c-1.612,0.077-1.618,0.077-2.889-0.011l-2.331-0.165
		c-5.245-2.385-8.413-4.561-10.361-10.214h29.271C114.037,183.826,111.096,186.102,106.146,188.177z M118.569,168.361H83.464
		v-13.764h35.104V168.361z"/>
	<path fill="#F39820" d="M183.884,129.088l-18.567-8.459c-1.581-0.714-3.441-0.021-4.16,1.555c-0.724,1.579-0.021,3.442,1.556,4.16
		l18.563,8.465c0.424,0.191,0.868,0.279,1.297,0.279c1.199,0,2.336-0.682,2.868-1.837
		C186.159,131.672,185.46,129.812,183.884,129.088z"/>
	<path fill="#F39820" d="M190.711,98.334l-20.997-1.651c-1.731-0.127-3.245,1.155-3.374,2.885c-0.14,1.729,1.152,3.24,2.884,3.379
		l20.996,1.65c0.083,0.006,0.165,0.008,0.248,0.008c1.623,0,2.997-1.248,3.132-2.893C193.735,99.982,192.443,98.468,190.711,98.334z
		"/>
	<path fill="#F39820" d="M163.317,76.815c0.393,1.39,1.653,2.305,3.028,2.305c0.279,0,0.559-0.041,0.843-0.116l21.1-5.854
		c1.675-0.461,2.651-2.193,2.186-3.864c-0.46-1.672-2.19-2.651-3.865-2.186l-21.1,5.853
		C163.833,73.415,162.857,75.144,163.317,76.815z"/>
	<path fill="#F39820" d="M176.433,38.465c-1.003-1.411-2.967-1.738-4.378-0.731L153.188,51.19c-1.411,1.006-1.736,2.97-0.729,4.379
		c0.609,0.86,1.576,1.319,2.558,1.319c0.631,0,1.271-0.191,1.824-0.587l18.857-13.456C177.115,41.839,177.44,39.877,176.433,38.465z
		"/>
	<path fill="#F39820" d="M34.272,119.642l-19.348,7.834c-1.607,0.648-2.382,2.48-1.731,4.091c0.496,1.22,1.669,1.961,2.915,1.961
		c0.393,0,0.791-0.075,1.178-0.232l19.343-7.835c1.607-0.648,2.388-2.48,1.731-4.087C37.709,119.766,35.88,118.988,34.272,119.642z"
		/>
	<path fill="#F39820" d="M33.348,98.738c-0.062-1.734-1.458-3.098-3.25-3.028L9.421,96.452c-1.736,0.062-3.09,1.52-3.028,3.252
		c0.057,1.697,1.452,3.028,3.137,3.028c0.036,0,0.072,0,0.108-0.001l20.682-0.74C32.056,101.928,33.41,100.471,33.348,98.738z"/>
	<path fill="#F39820" d="M12.914,71.397l19.772,6.405c0.326,0.105,0.646,0.154,0.972,0.154c1.317,0,2.558-0.845,2.987-2.174
		c0.532-1.648-0.372-3.421-2.021-3.955l-19.772-6.404c-1.654-0.532-3.426,0.371-3.958,2.021
		C10.361,69.093,11.26,70.865,12.914,71.397z"/>
	<path fill="#F39820" d="M30.645,36.707c-1.359-1.066-3.338-0.822-4.408,0.544c-1.07,1.371-0.827,3.341,0.548,4.409l16.996,13.257
		c0.579,0.447,1.251,0.664,1.934,0.664c0.93,0,1.854-0.417,2.475-1.21c1.07-1.371,0.822-3.344-0.548-4.408L30.645,36.707z"/>
	<path fill="#F39820" d="M54.757,16.423c-0.92-1.469-2.862-1.915-4.33-0.995c-1.473,0.921-1.918,2.858-0.998,4.331l11.587,18.497
		c0.594,0.951,1.617,1.474,2.666,1.474c0.563,0,1.143-0.155,1.664-0.479c1.468-0.92,1.912-2.859,0.997-4.328L54.757,16.423z"/>
	<path fill="#F39820" d="M84.348,5.617c-0.361-1.702-2.041-2.791-3.726-2.419c-1.695,0.362-2.78,2.032-2.419,3.728l4.532,21.235
		c0.315,1.476,1.617,2.487,3.069,2.487c0.218,0,0.439-0.021,0.656-0.07c1.7-0.362,2.775-2.03,2.414-3.725L84.348,5.617z"/>
	<path fill="#F39820" d="M113.168,2.033c-1.715-0.251-3.302,0.962-3.534,2.682l-3.08,22.359c-0.237,1.717,0.966,3.302,2.688,3.542
		c0.145,0.018,0.289,0.028,0.429,0.028c1.55,0,2.894-1.141,3.105-2.713l3.08-22.361C116.094,3.852,114.89,2.267,113.168,2.033z"/>
	<path fill="#F39820" d="M144.61,12.695c-1.535-0.817-3.432-0.231-4.243,1.301l-10.397,19.595c-0.812,1.534-0.228,3.433,1.303,4.247
		c0.47,0.248,0.977,0.366,1.467,0.366c1.127,0,2.218-0.604,2.78-1.666l10.398-19.596C146.728,15.409,146.144,13.508,144.61,12.695z"
		/>
</g>
</svg>
