<svg width="88" height="133" viewBox="0 0 88 133" version="1.1" xmlns="http://www.w3.org/2000/svg" xmlns:xlink="http://www.w3.org/1999/xlink">
<title>Platinum</title>
<desc>Created using Figma</desc>
<g id="Canvas" transform="translate(-802 347)">
<g id="Platinum">
<g id="Group">
<g id="Rectangle">
<use xlink:href="#path0_fill" transform="translate(812 -347)" fill="#FD7744"/>
<mask id="mask0_outline_ins">
<use xlink:href="#path0_fill" fill="white" transform="translate(812 -347)"/>
</mask>
<g mask="url(#mask0_outline_ins)">
<use xlink:href="#path1_stroke_2x" transform="translate(812 -347)" fill="#C24D1B"/>
</g>
</g>
<g id="Rectangle 2">
<use xlink:href="#path2_fill" transform="translate(802 -323)" fill="#EFEFEF"/>
<mask id="mask1_outline_ins">
<use xlink:href="#path2_fill" fill="white" transform="translate(802 -323)"/>
</mask>
<g mask="url(#mask1_outline_ins)">
<use xlink:href="#path3_stroke_2x" transform="translate(802 -323)" fill="#A89F79"/>
</g>
</g>
<g id="Ellipse">
<use xlink:href="#path4_fill" transform="translate(837 -312)" fill="#EFEFEF"/>
<mask id="mask2_outline_ins">
<use xlink:href="#path4_fill" fill="white" transform="translate(837 -312)"/>
</mask>
<g mask="url(#mask2_outline_ins)">
<use xlink:href="#path5_stroke_2x" transform="translate(837 -312)" fill="#A89F79"/>
</g>
</g>
<g id="Star">
<use xlink:href="#path6_fill" transform="translate(801 -301)" fill="url(#paint6_linear)"/>
<mask id="mask3_outline_ins">
<use xlink:href="#path6_fill" fill="white" transform="translate(801 -301)"/>
</mask>
<g mask="url(#mask3_outline_ins)">
<use xlink:href="#path7_stroke_2x" transform="translate(801 -301)" fill="#A89F79"/>
</g>
</g>
</g>
<g id="Star 2">
<use xlink:href="#path8_fill" transform="translate(816 -276)" fill="url(#paint8_radial)"/>
</g>
</g>
</g>
<defs>
<linearGradient id="paint6_linear" x1="0" y1="0" x2="1" y2="0" gradientUnits="userSpaceOnUse" gradientTransform="matrix(44 69 -69 44 61 -5.5)">
<stop offset="0.155958" stop-color="#E3E1DC"/>
<stop offset="0.444444" stop-color="#FFFFFF"/>
<stop offset="0.83472" stop-color="#D9D6CE"/>
</linearGradient>
<radialGradient id="paint8_radial" cx="0.5" cy="0.5" r="0.5" gradientUnits="userSpaceOnUse" gradientTransform="matrix(1.59204e-15 26 -26 1.59204e-15 26 -1.59204e-15)">
<stop offset="0.133333" stop-color="#FFFFFF"/>
<stop offset="1" stop-color="#FFFFFF" stop-opacity="0"/>
</radialGradient>
<path id="path0_fill" d="M 0 2C 0 0.895431 0.895431 0 2 0L 66 0C 67.1046 0 68 0.895431 68 2L 68 27C 68 28.1046 67.1046 29 66 29L 2 29C 0.895431 29 0 28.1046 0 27L 0 2Z"/>
<path id="path1_stroke_2x" d="M 2 5L 66 5L 66 -5L 2 -5L 2 5ZM 63 2L 63 27L 73 27L 73 2L 63 2ZM 66 24L 2 24L 2 34L 66 34L 66 24ZM 5 27L 5 2L -5 2L -5 27L 5 27ZM 2 -5C -1.86599 -5 -5 -1.86599 -5 2L 5 2C 5 3.65685 3.65685 5 2 5L 2 -5ZM 66 5C 64.3431 5 63 3.65685 63 2L 73 2C 73 -1.86599 69.866 -5 66 -5L 66 5ZM 63 27C 63 25.3431 64.3431 24 66 24L 66 34C 69.866 34 73 30.866 73 27L 63 27ZM 2 24C 3.65685 24 5 25.3431 5 27L -5 27C -5 30.866 -1.86599 34 2 34L 2 24Z"/>
<path id="path2_fill" d="M 0 9C 0 4.02944 4.02944 0 9 0L 79 0C 83.9706 0 88 4.02944 88 9L 88 9C 88 13.9706 83.9706 18 79 18L 9 18C 4.02944 18 0 13.9706 0 9L 0 9Z"/>
<path id="path3_stroke_2x" d="M 9 5L 79 5L 79 -5L 9 -5L 9 5ZM 79 13L 9 13L 9 23L 79 23L 79 13ZM 9 -5C 1.26801 -5 -5 1.26801 -5 9L 5 9C 5 6.79086 6.79086 5 9 5L 9 -5ZM 79 5C 81.2091 5 83 6.79086 83 9L 93 9C 93 1.26801 86.732 -5 79 -5L 79 5ZM 83 9C 83 11.2091 81.2091 13 79 13L 79 23C 86.732 23 93 16.732 93 9L 83 9ZM 9 13C 6.79086 13 5 11.2091 5 9L -5 9C -5 16.732 1.26801 23 9 23L 9 13Z"/>
<path id="path4_fill" d="M 19 9.5C 19 14.7467 14.7467 19 9.5 19C 4.25329 19 0 14.7467 0 9.5C 0 4.25329 4.25329 0 9.5 0C 14.7467 0 19 4.25329 19 9.5Z"/>
<path id="path5_stroke_2x" d="M 14 9.5C 14 11.9853 11.9853 14 9.5 14L 9.5 24C 17.5081 24 24 17.5081 24 9.5L 14 9.5ZM 9.5 14C 7.01472 14 5 11.9853 5 9.5L -5 9.5C -5 17.5081 1.49187 24 9.5 24L 9.5 14ZM 5 9.5C 5 7.01472 7.01472 5 9.5 5L 9.5 -5C 1.49187 -5 -5 1.49187 -5 9.5L 5 9.5ZM 9.5 5C 11.9853 5 14 7.01472 14 9.5L 24 9.5C 24 1.49187 17.5081 -5 9.5 -5L 9.5 5Z"/>
<path id="path6_fill" d="M 42.3002 5.57208C 43.3932 3.31622 46.6068 3.31622 47.6998 5.57208L 55.9675 22.6357C 56.5032 23.7414 57.6589 24.4086 58.8843 24.3197L 77.7957 22.948C 80.2958 22.7666 81.9026 25.5496 80.4955 27.6241L 69.8518 43.316C 69.1621 44.3327 69.1621 45.6673 69.8518 46.684L 80.4955 62.3759C 81.9026 64.4504 80.2958 67.2334 77.7957 67.052L 58.8843 65.6803C 57.6589 65.5914 56.5032 66.2586 55.9675 67.3643L 47.6998 84.4279C 46.6068 86.6838 43.3932 86.6838 42.3002 84.4279L 34.0325 67.3643C 33.4968 66.2586 32.3411 65.5914 31.1157 65.6803L 12.2043 67.052C 9.70418 67.2334 8.0974 64.4504 9.50453 62.3759L 20.1482 46.684C 20.8379 45.6673 20.8379 44.3327 20.1482 43.316L 9.50453 27.6241C 8.0974 25.5496 9.70418 22.7666 12.2043 22.948L 31.1157 24.3197C 32.3411 24.4086 33.4968 23.7414 34.0325 22.6357L 42.3002 5.57208Z"/>
<path id="path7_stroke_2x" d="M 47.6998 5.57208L 43.2001 7.75225L 47.6998 5.57208ZM 55.9675 22.6357L 51.4678 24.8159L 55.9675 22.6357ZM 77.7957 22.948L 77.4339 17.9611L 77.7957 22.948ZM 69.8518 43.316L 65.7139 40.5092L 69.8518 43.316ZM 80.4955 62.3759L 84.6334 59.5692L 80.4955 62.3759ZM 58.8843 65.6803L 59.246 60.6934L 58.8843 65.6803ZM 34.0325 67.3643L 38.5322 65.1841L 34.0325 67.3643ZM 12.2043 67.052L 11.8426 62.0651L 12.2043 67.052ZM 20.1482 46.684L 24.2861 49.4908L 20.1482 46.684ZM 31.1157 24.3197L 30.754 29.3066L 31.1157 24.3197ZM 58.8843 24.3197L 58.5226 19.3328L 58.8843 24.3197ZM 80.4955 27.6241L 84.6334 30.4308L 80.4955 27.6241ZM 69.8518 46.684L 65.7139 49.4908L 69.8518 46.684ZM 77.7957 67.052L 78.1574 62.0651L 77.7957 67.052ZM 55.9675 67.3643L 51.4678 65.1841L 55.9675 67.3643ZM 31.1157 65.6803L 30.754 60.6934L 31.1157 65.6803ZM 9.50453 62.3759L 5.36661 59.5692L 9.50453 62.3759ZM 20.1482 43.316L 16.0103 46.1227L 20.1482 43.316ZM 12.2043 22.948L 11.8426 27.9349L 12.2043 22.948ZM 34.0325 22.6357L 38.5322 24.8159L 34.0325 22.6357ZM 43.2001 7.75225L 51.4678 24.8159L 60.4671 20.4555L 52.1994 3.39191L 43.2001 7.75225ZM 59.246 29.3066L 78.1574 27.9349L 77.4339 17.9611L 58.5226 19.3328L 59.246 29.3066ZM 76.3576 24.8174L 65.7139 40.5092L 73.9897 46.1227L 84.6334 30.4308L 76.3576 24.8174ZM 65.7139 49.4908L 76.3576 65.1826L 84.6334 59.5692L 73.9897 43.8773L 65.7139 49.4908ZM 78.1574 62.0651L 59.246 60.6934L 58.5226 70.6672L 77.4339 72.0389L 78.1574 62.0651ZM 51.4678 65.1841L 43.2001 82.2477L 52.1994 86.6081L 60.4671 69.5445L 51.4678 65.1841ZM 46.7999 82.2477L 38.5322 65.1841L 29.5329 69.5445L 37.8006 86.6081L 46.7999 82.2477ZM 30.754 60.6934L 11.8426 62.0651L 12.5661 72.0389L 31.4774 70.6672L 30.754 60.6934ZM 13.6424 65.1826L 24.2861 49.4908L 16.0103 43.8773L 5.36661 59.5692L 13.6424 65.1826ZM 24.2861 40.5092L 13.6424 24.8174L 5.36661 30.4308L 16.0103 46.1227L 24.2861 40.5092ZM 11.8426 27.9349L 30.754 29.3066L 31.4774 19.3328L 12.5661 17.9611L 11.8426 27.9349ZM 38.5322 24.8159L 46.7999 7.75225L 37.8006 3.39191L 29.5329 20.4555L 38.5322 24.8159ZM 52.1994 3.39191C 49.2847 -2.62372 40.7153 -2.62372 37.8006 3.39191L 46.7999 7.75225C 46.0712 9.25616 43.9288 9.25616 43.2001 7.75225L 52.1994 3.39191ZM 51.4678 24.8159C 52.8964 27.7643 55.9783 29.5437 59.246 29.3066L 58.5226 19.3328C 59.3395 19.2736 60.11 19.7184 60.4671 20.4555L 51.4678 24.8159ZM 78.1574 27.9349C 76.4907 28.0558 75.4195 26.2004 76.3576 24.8174L 84.6334 30.4308C 88.3857 24.8988 84.101 17.4774 77.4339 17.9611L 78.1574 27.9349ZM 65.7139 40.5092C 63.8747 43.2206 63.8747 46.7794 65.7139 49.4908L 73.9897 43.8773C 74.4495 44.5552 74.4495 45.4448 73.9897 46.1227L 65.7139 40.5092ZM 76.3576 65.1826C 75.4195 63.7996 76.4907 61.9442 78.1574 62.0651L 77.4339 72.0389C 84.101 72.5226 88.3857 65.1012 84.6334 59.5692L 76.3576 65.1826ZM 59.246 60.6934C 55.9783 60.4563 52.8964 62.2357 51.4678 65.1841L 60.4671 69.5445C 60.11 70.2816 59.3395 70.7264 58.5226 70.6672L 59.246 60.6934ZM 43.2001 82.2477C 43.9288 80.7438 46.0712 80.7438 46.7999 82.2477L 37.8006 86.6081C 40.7153 92.6237 49.2847 92.6237 52.1994 86.6081L 43.2001 82.2477ZM 38.5322 65.1841C 37.1036 62.2357 34.0217 60.4563 30.754 60.6934L 31.4774 70.6672C 30.6605 70.7264 29.89 70.2816 29.5329 69.5445L 38.5322 65.1841ZM 11.8426 62.0651C 13.5093 61.9442 14.5805 63.7996 13.6424 65.1826L 5.36661 59.5692C 1.61428 65.1012 5.89902 72.5226 12.5661 72.0389L 11.8426 62.0651ZM 24.2861 49.4908C 26.1253 46.7794 26.1253 43.2206 24.2861 40.5092L 16.0103 46.1227C 15.5505 45.4448 15.5505 44.5552 16.0103 43.8773L 24.2861 49.4908ZM 13.6424 24.8174C 14.5805 26.2004 13.5093 28.0558 11.8426 27.9349L 12.5661 17.9611C 5.89902 17.4774 1.61428 24.8988 5.36661 30.4308L 13.6424 24.8174ZM 30.754 29.3066C 34.0217 29.5437 37.1036 27.7643 38.5322 24.8159L 29.5329 20.4555C 29.89 19.7184 30.6605 19.2736 31.4774 19.3328L 30.754 29.3066Z"/>
<path id="path8_fill" d="M 13 0L 14.1815 11.3737L 25.3637 8.98278L 14.9118 13.6212L 20.6412 23.5172L 13 15.0102L 5.35879 23.5172L 11.0882 13.6212L 0.636265 8.98278L 11.8185 11.3737L 13 0Z"/>
</defs>
</svg>
